<svg xmlns="http://www.w3.org/2000/svg" width="133" height="28" viewBox="0 0 133 28" fill="none"><mask id="a" maskUnits="userSpaceOnUse" x="0" y="0" width="133" height="28"><path d="M132.125 0H0v28h132.125V0Z" fill="#fff"></path></mask><g mask="url(#a)"><path d="M18.42 20.832c-2.156 0-2.646-.97-2.646-2.504v-4.58c0-1.601-.512-2.187-1.686-2.187-1.13 0-1.514.88-1.514 2.12v7.15h-1.408c-1.643 0-2.518-.564-2.518-2.504v-4.693c0-1.466-.533-2.076-1.6-2.076-1.13 0-1.579.61-1.579 2.142v7.132H4.062c-1.814 0-2.646-.925-2.646-2.504v-4.353c0-3.61 1.963-5.91 5.696-5.91 1.834 0 3.222 1.196 3.605 2.21.556-.947 1.984-2.212 3.67-2.212 3.413 0 5.438 2.142 5.438 6.024v6.745h-1.407.001Zm8.384.339c-2.26 0-5.013-1.128-5.013-3.948 0-2.752 1.878-4.15 6.144-4.15h.576v-.52c0-1.015-.746-1.263-2.347-1.263-2.197 0-3.008.542-3.84 1.355h-.106v-1.512c0-1.534 1.515-3.068 4.864-3.068 3.242 0 5.354 1.737 5.354 5.391v1.918c0 4.512-1.365 5.797-5.632 5.797Zm1.792-5.436h-.81c-1.536 0-2.155.406-2.155 1.24 0 .79.47 1.195 1.6 1.195.725 0 1.365-.383 1.365-1.511v-.924Zm22.914 5.097c-2.155 0-2.646-.97-2.646-2.504V13.75c0-1.602-.512-2.188-1.686-2.188-1.13 0-1.514.88-1.514 2.12v7.15h-1.409c-1.642 0-2.517-.564-2.517-2.504v-4.693c0-1.466-.533-2.076-1.6-2.076-1.13 0-1.579.61-1.579 2.142v7.132h-1.407c-1.814 0-2.646-.924-2.646-2.504v-4.353c0-3.61 1.963-5.91 5.696-5.91 1.834 0 3.221 1.196 3.605 2.21.554-.947 1.984-2.21 3.669-2.21 3.414 0 5.439 2.141 5.439 6.022v6.746h-1.408.002Zm8.384.339c-2.26 0-5.013-1.128-5.013-3.948 0-2.752 1.877-4.15 6.144-4.15h.576v-.52c0-1.015-.746-1.263-2.346-1.263-2.198 0-3.008.542-3.84 1.355h-.107v-1.512c0-1.534 1.515-3.068 4.864-3.068 3.243 0 5.355 1.737 5.355 5.391v1.918c0 4.512-1.365 5.797-5.633 5.797Zm1.793-5.436h-.81c-1.536 0-2.155.406-2.155 1.24 0 .79.47 1.195 1.6 1.195.725 0 1.365-.383 1.365-1.511v-.924Z" fill="#00AEEF"></path><path d="M73.101 16.163h-1.75c.236 1.24 1.195 1.826 2.881 1.826 1.877 0 3.05-.315 3.712-.79h.149v.993c0 1.58-1.216 3-4.566 3-4.052 0-6.184-2.887-6.184-6.316 0-3.767 2.41-6.834 6.037-6.834 3.071 0 5.461 1.827 5.461 4.985 0 2.482-1.771 3.136-5.739 3.136h-.001Zm.279-4.918c-1.43 0-2.027.97-2.133 2.166h1.577c1.921 0 2.263-.315 2.263-.857 0-.632-.534-1.309-1.707-1.309Zm12.095 9.926c-2.262 0-5.014-1.128-5.014-3.948 0-2.752 1.877-4.15 6.144-4.15h.576v-.52c0-1.015-.746-1.263-2.346-1.263-2.198 0-3.009.542-3.841 1.355h-.106v-1.512c0-1.534 1.514-3.068 4.864-3.068 3.243 0 5.355 1.737 5.355 5.391v1.918c0 4.512-1.366 5.797-5.632 5.797Zm1.792-5.436h-.81c-1.537 0-2.155.406-2.155 1.24 0 .79.469 1.195 1.6 1.195.725 0 1.365-.383 1.365-1.511v-.924Zm13.121-4.106a3.485 3.485 0 0 0-1.43-.248c-.981 0-1.75.518-1.75 2.03v7.422H96.1c-1.75 0-2.817-.858-2.817-2.933v-5.392c0-2.503 1.6-4.489 4.268-4.489 2.026 0 2.965.88 2.965 2.03v1.58h-.128Zm2.752-5.392a3.419 3.419 0 0 1 2.112-.835h.426v3.024h3.436v1.512c0 1.06-1.067 1.872-1.984 1.872h-1.45v4.488a1.215 1.215 0 0 0 .766 1.256c.164.062.339.088.513.075a4.358 4.358 0 0 0 1.834-.27h.106v1.67c0 1.037-.896 1.983-3.008 1.983-2.005 0-4.159-1.015-4.159-4.422V8.9a3.431 3.431 0 0 1 1.408-2.662Zm17.771 14.597c-2.134 0-2.496-1.06-2.496-2.595v-4.152c0-1.76-.597-2.549-1.749-2.549-1.579 0-1.963.88-1.963 2.64v6.656h-1.365c-1.941 0-2.688-.858-2.688-2.595V4.14h1.301c1.686 0 2.645.857 2.645 2.459V9.8c.598-.992 1.579-1.737 3.435-1.737 2.368 0 4.438 1.94 4.438 5.301v7.469h-1.558Zm6.576-16.244v-.334h-2.242a.477.477 0 0 0-.495.466v.335h.912V7.25c0 .37.233.502.495.502h.385V5.057h.453c.27 0 .492-.248.492-.466Zm4.263 3.16c0-.959-.079-2.034-.163-2.719-.059-.502-.281-.781-.745-.781h-.161c-.116.107-.27.32-.385.619l-.305.801a8.25 8.25 0 0 0-.264.822 10.44 10.44 0 0 0-.311-.99l-.249-.679c-.117-.31-.376-.573-.885-.573h-.305c-.154.736-.278 1.948-.278 2.952 0 .345.245.548.514.548h.328c0-.578.042-1.69.098-2.288.05.147.148.457.227.746l.161.583c.2.71.436.959.737.959h.245c.121-.218.255-.593.32-.807l.439-1.47c.051.517.079 1.415.079 1.73 0 .364.222.547.529.547h.374Z" fill="#82C341"></path></g></svg>